# xmcd
#
# Track frame offsets: 
#        150
#        22137
#        36566
#        55851
#        69038
#        88576
#        111403
#        126501
#        147231
#        170137
#        186169
#        200570
#
# Disc length: 2904 seconds
#
# Revision: 0
# Processed by: cddbd v1.5.2PL0 Copyright (c) Steve Scherf et al.
# Submitted via: ExactAudioCopy v1.3
#
DISCID=b90b560c
DTITLE=Ash Grunwald - Mojo
DYEAR=2019
DGENRE=Blues
TTITLE0=Hammer (feat. Terry Evans)
TTITLE1=Ain't My Problem (feat. The Teskey Brothers)
TTITLE2=Waiting Around To Die (feat. Joe Bonamassa, Josh Teskey and Ian 
TTITLE2=Collard)
TTITLE3=Whispering Voice (feat. Kasey Chambers)
TTITLE4=Human (feat. Mahalia Barnes and Harry James Angus)
TTITLE5=Trouble's Door (feat Mahalia Barnes and Kim Wilson)
TTITLE6=Mountain (feat. Mahalia Barnes)
TTITLE7=3AM (feat. Harry James Angus and Ian Collard)
TTITLE8=How Many More Years (feat. Eddy 'The Chief' Clearwater and Ian C
TTITLE8=ollard)
TTITLE9=Whipping Boy (feat. Terry Evans)
TTITLE10=The Boogie
TTITLE11=Goin' Out West (feat. Kim Wilson)
EXTD=
EXTT0=
EXTT1=
EXTT2=
EXTT3=
EXTT4=
EXTT5=
EXTT6=
EXTT7=
EXTT8=
EXTT9=
EXTT10=
EXTT11=
PLAYORDER=
